<?xml version="1.0" encoding="UTF-8" standalone="no"?>
<!-- Created with Inkscape (http://www.inkscape.org/) -->

<svg
   width="98.160423mm"
   height="97.895828mm"
   viewBox="0 0 98.160423 97.895828"
   version="1.1"
   id="svg5"
   xml:space="preserve"
   inkscape:version="1.2.1 (9c6d41e410, 2022-07-14)"
   sodipodi:docname="logo.svg"
   xmlns:inkscape="http://www.inkscape.org/namespaces/inkscape"
   xmlns:sodipodi="http://sodipodi.sourceforge.net/DTD/sodipodi-0.dtd"
   xmlns="http://www.w3.org/2000/svg"
   xmlns:svg="http://www.w3.org/2000/svg"><sodipodi:namedview
     id="namedview7"
     pagecolor="#ffffff"
     bordercolor="#000000"
     borderopacity="0.25"
     inkscape:showpageshadow="2"
     inkscape:pageopacity="0.0"
     inkscape:pagecheckerboard="0"
     inkscape:deskcolor="#d1d1d1"
     inkscape:document-units="mm"
     showgrid="false"
     inkscape:zoom="0.93539562"
     inkscape:cx="158.22182"
     inkscape:cy="186.01755"
     inkscape:window-width="1366"
     inkscape:window-height="705"
     inkscape:window-x="-8"
     inkscape:window-y="-8"
     inkscape:window-maximized="1"
     inkscape:current-layer="layer1" /><defs
     id="defs2" /><g
     inkscape:label="Layer 1"
     inkscape:groupmode="layer"
     id="layer1"
     transform="translate(-55.55767,-83.940519)"><path
       style="fill:#000000;stroke-width:0.264583"
       d="M 55.55767,132.88844 V 83.940519 h 49.08021 49.08021 v 48.947921 48.94791 H 104.63788 55.55767 Z m 9.78958,43.92083 v -4.49792 h -4.49791 -4.49792 v 4.49792 4.49792 h 4.49792 4.49791 z m 9.73,0.0661 0.0727,-4.29948 -2.71854,-0.002 c -1.49519,-0.001 -3.5222,-0.0778 -4.50447,-0.17057 L 66.141,172.23464 v 4.35979 c 0,2.39788 0.0822,4.442 0.18271,4.54249 0.10048,0.10049 2.09478,0.1501 4.43177,0.11024 l 4.24907,-0.0725 z m 9.58459,0.0661 v -4.36562 h -4.35299 -4.353 l -0.0788,4.25611 c -0.0433,2.34086 -0.0292,4.30539 0.0315,4.36562 0.0606,0.0602 2.05493,0.10952 4.43177,0.10952 h 4.32153 z m 9.78958,0 v -4.36562 H 90.0858 85.72017 v 4.36562 4.36563 h 4.36563 4.36562 z m 9.72984,-0.19844 0.0725,-4.43177 h -4.50432 -4.50431 v 4.32153 c 0,2.37684 0.0822,4.40374 0.1827,4.50423 0.10049,0.10049 2.09478,0.1501 4.43177,0.11024 l 4.24907,-0.0725 z m 9.84933,0.0661 v -4.49792 l -4.43177,2.2e-4 -4.43177,2.1e-4 v 4.49785 4.49786 l 4.43177,-1.5e-4 4.43177,-1.5e-4 z m 9.72983,-0.0661 0.0726,-4.43177 h -4.50432 -4.50431 v 4.32153 c 0,2.37684 0.0822,4.40374 0.1827,4.50423 0.10048,0.10049 2.09478,0.1501 4.43177,0.11024 l 4.24907,-0.0725 z m 9.7897,0.30411 0.0727,-4.12767 -3.64454,-0.18053 c -2.00449,-0.0993 -4.09102,-0.24916 -4.63673,-0.33305 l -0.99218,-0.15252 v 4.35048 c 0,2.39275 0.0821,4.43262 0.18255,4.53303 0.10041,0.1004 2.15424,0.15001 4.56407,0.11024 l 4.3815,-0.0723 z m 9.52489,-0.30411 0.0725,-4.43177 h -1.85848 c -1.0626,0 -1.85848,0.11331 -1.85848,0.26459 0,0.15875 -1.05834,0.26458 -2.64584,0.26458 h -2.64583 v 4.05694 c 0,2.23133 0.0822,4.13916 0.1827,4.23965 0.10049,0.10049 2.09478,0.1501 4.43177,0.11024 l 4.24907,-0.0725 z m 9.84933,0.0661 v -4.49792 h -4.49792 -4.49792 v 4.49792 4.49792 h 4.49792 4.49792 z m -87.57709,-9.78958 v -4.49792 h -4.49791 -4.49792 v 4.49792 4.49791 h 4.49792 4.49791 z m 3.175,0 v -4.49792 H 67.33163 66.141 v 4.49792 4.49791 h 1.19063 1.19062 z m 35.71875,0 v -4.49792 h -4.49791 -4.49792 v 4.49792 4.49791 h 4.49792 4.49791 z m 9.72984,0.0661 -0.0725,-4.43177 -4.36563,-0.072 -4.36562,-0.072 v 4.50395 4.50395 l 4.43816,-1.5e-4 4.43817,-1.5e-4 z m 5.13856,1.19063 c -1.74899,-1.78263 -3.42467,-3.5388 -3.72372,-3.90261 l -0.54374,-0.66145 -0.009,3.9026 -0.009,3.9026 h 3.73252 3.73253 z m 24.02535,-1.25677 v -4.49792 h -1.85208 -1.85208 v 4.49792 4.49791 h 1.85208 1.85208 z m 9.78959,0 v -4.49792 h -4.49792 -4.49792 v 4.49792 4.49791 h 4.49792 4.49792 z m -15.875,-0.66146 v -3.83646 h -0.92604 -0.92605 v 3.83646 3.83646 h 0.92605 0.92604 z m -71.70175,-9.06198 3.4e-4,-4.43177 -4.49825,0.0782 -4.49826,0.0782 v 4.35356 4.35356 h 4.49792 4.49791 l 3.5e-4,-4.43177 z m 3.17466,0.0939 v -4.33784 l -1.07207,-0.10224 c -0.58965,-0.0562 -1.12543,-0.0489 -1.19063,0.0163 -0.0652,0.0652 -0.11855,2.06324 -0.11855,4.44008 v 4.32153 h 1.19063 1.19062 z m 35.71875,0.0163 c 0,-2.37685 -0.0493,-4.37114 -0.10954,-4.43178 -0.0602,-0.0606 -2.08431,-0.0749 -4.49791,-0.0318 l -4.38838,0.0785 v 4.35329 4.35328 h 4.49792 4.49791 v -4.32153 z m 4.88349,0.55121 c -2.02173,-2.07367 -3.7032,-3.81365 -3.73658,-3.86662 -0.0334,-0.053 -0.0967,1.64385 -0.14079,3.77072 l -0.0801,3.86704 3.81666,-4.1e-4 3.81666,-4.1e-4 -3.67588,-3.77031 z m 27.92485,-0.5953 v -4.36563 h -0.92604 -0.92605 v 4.36563 4.36562 h 0.92605 0.92604 z m 6.08541,0 v -4.36563 h -1.85208 -1.85208 v 4.36563 4.36562 h 1.85208 1.85208 z m 9.78959,0 v -4.36563 h -4.49792 -4.49792 v 4.36563 4.36562 h 4.49792 4.49792 z m -87.63698,-9.85573 0.0724,-4.56407 h -4.50417 -4.50416 v 4.63661 4.63661 l 4.43177,-0.0726 4.43177,-0.0725 z m 3.23489,0.0661 v -4.63021 H 67.33163 66.141 v 4.63021 4.63021 h 1.19063 1.19062 z m 31.08154,0.59531 c -2.16615,-2.21919 -4.033,-4.148 -4.14854,-4.28625 -0.11554,-0.13824 -0.21008,1.67746 -0.21008,4.0349 v 4.28625 h 4.14854 4.14854 z m 37.37843,0.66146 c -0.0861,-2.23934 -0.28287,-3.79594 -0.58532,-4.63021 -0.40267,-1.11066 -0.54599,-1.25677 -1.23282,-1.25677 -1.0299,0 -1.1536,0.45229 -0.51108,1.86863 0.43549,0.95995 0.53369,1.74108 0.53844,4.28294 l 0.006,3.10885 h 0.95733 0.95733 z m 6.15253,-1.25677 v -4.63021 h -1.85208 -1.85208 v 4.63021 4.63021 h 1.85208 1.85208 z m 9.78959,0 v -4.63021 h -4.49792 -4.49792 v 4.63021 4.63021 h 4.49792 4.49792 z m -58.47292,-2.64557 v -1.98438 h -1.7769 -1.7769 l 1.34971,1.38907 c 0.74234,0.76398 1.4866,1.65695 1.65392,1.98437 0.16731,0.32742 0.35955,0.59531 0.42719,0.59531 0.0676,0 0.12298,-0.89297 0.12298,-1.98437 z m -29.16435,-7.14375 -0.0721,-4.49792 -4.43177,-0.0725 -4.43177,-0.0726 v 4.46022 c 0,2.45312 0.0496,4.50983 0.11024,4.57046 0.0606,0.0606 2.08738,0.11024 4.50388,0.11024 h 4.39364 z m 3.23518,-0.16009 v -4.47012 H 67.33163 66.141 v 4.45382 c 0,2.4496 0.0533,4.50716 0.11855,4.57236 0.0652,0.0652 0.60098,0.0725 1.19063,0.0163 l 1.07207,-0.10223 z m 65.0875,3.3893 c 0,-1.06256 -0.12996,-1.23545 -3.36962,-4.48231 -3.22163,-3.2288 -3.41723,-3.37711 -4.45381,-3.37711 -0.59631,0 -1.1679,0.0837 -1.27019,0.18599 -0.2358,0.2358 8.58645,9.09207 8.87778,8.91201 0.11871,-0.0734 0.21584,-0.63073 0.21584,-1.23858 z m 1.40593,0.28786 c -0.7141,-0.74858 -0.74802,-0.7572 -0.83154,-0.21127 -0.14368,0.93918 0.11487,1.271 0.87683,1.12534 l 0.69917,-0.13365 z m 8.11907,-3.66498 v -4.4823 h -1.85208 -1.85208 v 4.48529 4.48529 l 1.65364,0.0788 c 0.90951,0.0433 1.74295,0.042 1.85209,-0.003 0.10914,-0.045 0.19843,-2.09879 0.19843,-4.56406 z m 9.72974,0.18388 0.0724,-4.35679 -0.7339,-0.14105 c -0.40365,-0.0776 -2.40078,-0.11743 -4.43807,-0.0885 l -3.70416,0.0525 -0.0721,4.49792 -0.0721,4.49791 4.43776,-0.0526 4.43776,-0.0526 z m -62.91796,0.42705 c -2.09276,-2.14643 -3.89982,-4.01572 -4.01569,-4.15396 -0.11587,-0.13824 -0.21067,0.59799 -0.21067,1.63606 v 1.88742 l 2.14547,2.26654 2.14547,2.26654 h 1.87022 1.87022 z m -5.2287,-4.89479 c -0.048,-0.10914 -0.82061,-0.19844 -1.71697,-0.19844 h -1.62975 l 1.57922,1.59888 1.57922,1.59888 0.13774,-1.40044 c 0.0758,-0.77025 0.0985,-1.48974 0.0505,-1.59888 z m -19.37058,-5.22552 v -4.49792 h -4.49791 -4.49792 v 4.35923 4.35922 l 4.43177,0.0794 c 2.43748,0.0437 4.46154,0.10608 4.49792,0.13869 0.0364,0.0326 0.0662,-1.96476 0.0662,-4.43861 z m 3.175,-0.16009 v -4.33783 H 67.33163 66.141 v 4.32153 c 0,2.37684 0.0533,4.37487 0.11855,4.44007 0.0652,0.0652 0.60098,0.0725 1.19063,0.0163 l 1.07207,-0.10223 z m 56.85383,3.69834 c -0.7436,-0.79154 -1.02674,-0.79442 -1.02674,-0.0105 0,0.8062 0.14105,0.92037 0.94679,0.76635 l 0.66977,-0.12804 z m -45.24584,-3.48093 -4.06736,-4.17601 -0.0787,1.84305 -0.0787,1.84304 2.32215,2.33297 2.32216,2.33296 h 1.82392 1.82392 z m 43.68993,3.07512 c 0,-1.05287 -0.14076,-1.24326 -3.22759,-4.36562 l -3.22759,-3.26474 h -1.27033 c -0.69868,0 -1.27032,0.0879 -1.27032,0.19543 0,0.34274 8.31419,8.53582 8.662,8.53582 0.21523,0 0.33383,-0.39111 0.33383,-1.10089 z m 19.31458,-3.26474 v -4.36562 h -1.85208 -1.85208 v 4.36562 4.36563 h 1.85208 1.85208 z m 9.78959,0 v -4.36562 h -4.49792 -4.49792 v 4.36562 4.36563 h 4.49792 4.49792 z m -77.7875,-2.77812 v -1.5875 h -1.64537 -1.64536 l 1.57094,1.5875 c 0.86401,0.87312 1.60442,1.5875 1.64536,1.5875 0.0409,0 0.0744,-0.71438 0.0744,-1.5875 z m -9.78959,-6.87917 v -4.49791 h -4.49791 -4.49792 v 4.49791 4.49792 h 4.49792 4.49791 z m 3.175,0 v -4.49791 H 67.33163 66.141 v 4.49791 4.49792 h 1.19063 1.19062 z m 5.47766,3.49458 -0.97974,-1.00335 v -3.49457 -3.49457 H 71.92589 70.8316 l 0.14967,3.9026 c 0.20287,5.28971 0.11585,5.09323 2.25575,5.09323 h 1.74263 z m 40.03068,-0.46591 c 0,-1.13122 -0.15218,-1.69319 -0.66146,-2.44267 -0.56525,-0.83183 -0.66146,-1.27237 -0.66146,-3.02867 v -2.05524 h -3.70417 c -2.7688,0 -3.70416,0.0828 -3.70416,0.32772 0,0.34801 8.18725,8.66811 8.52971,8.66811 0.11085,0 0.20154,-0.66116 0.20154,-1.46925 z m 2.38125,1.38646 c 0,-0.0455 -0.35719,-0.425 -0.79375,-0.84325 l -0.79375,-0.76046 v 0.84325 c 0,0.76055 0.0778,0.84325 0.79375,0.84325 0.43656,0 0.79375,-0.0373 0.79375,-0.0828 z m 26.72291,-4.41513 v -4.49791 h -1.85208 -1.85208 v 4.49791 4.49792 h 1.85208 1.85208 z m 9.78959,0 v -4.49791 h -4.49792 -4.49792 v 4.49791 4.49792 h 4.49792 4.49792 z m -87.57709,-9.78958 v -4.49792 h -4.49791 -4.49792 v 4.49792 4.49792 h 4.49792 4.49791 z m 3.175,-0.0152 v -4.51313 l -1.12447,0.0814 -1.12448,0.0814 -0.0725,4.43177 -0.0725,4.43178 h 1.19702 1.19702 v -4.51313 z m 4.49792,0.0152 v -4.49792 H 71.96184 70.9035 v 4.49792 4.49792 h 1.05834 1.05833 z m 31.16109,0.0661 -0.0725,-4.43177 -4.43177,-0.0725 c -2.43747,-0.0399 -4.43177,0.0183 -4.43177,0.12937 0,0.26779 8.53318,8.80672 8.80079,8.80672 0.11431,0 0.17519,-1.9943 0.1353,-4.43178 z m 8.52641,-0.0661 v -4.49792 l -3.77031,-1.5e-4 -3.77031,-1.5e-4 v 4.49786 4.49785 l 3.77031,2.1e-4 3.77031,2.2e-4 z m 30.42708,0 v -4.49792 h -1.85208 -1.85208 v 4.49792 4.49792 h 1.85208 1.85208 z m 9.78959,0 v -4.49792 h -4.49792 -4.49792 v 4.49792 4.49792 h 4.49792 4.49792 z M 65.34725,98.889481 v -4.63021 h -4.49791 -4.49792 v 4.63021 4.630209 h 4.49792 4.49791 z m 3.175,0 v -4.63021 H 67.33163 66.141 v 4.63021 4.630209 h 1.19063 1.19062 z m 4.49792,0.958439 c 0,-4.013029 -0.14762,-4.437979 -1.4299,-4.116149 l -0.68677,0.17236 v 3.807779 3.80778 h 1.05834 1.05833 z m 21.43125,-0.958439 v -4.63021 H 90.0858 c -2.4011,0 -4.36563,0.036 -4.36563,0.08 0,0.19684 8.46499,9.180409 8.65047,9.180409 0.0444,0 0.0808,-2.0836 0.0808,-4.630209 z m 9.65729,0 v -4.49792 l -4.43177,-0.0725 -4.43177,-0.0726 v 4.64301 4.642999 l 4.43177,-0.0725 4.43177,-0.0726 z m 8.59896,0 v -4.63021 h -3.70417 -3.70416 v 4.63021 4.630209 h 3.70416 3.70417 z m 30.42708,0 v -4.63021 h -1.85208 -1.85208 v 4.63021 4.630209 h 1.85208 1.85208 z m 9.78959,0 v -4.63021 h -4.49792 -4.49792 v 4.63021 4.630209 h 4.49792 4.49792 z m -87.57709,-9.78959 v -4.36562 h -4.49791 -4.49792 v 4.36562 4.36563 h 4.49792 4.49791 z m 7.07761,4.10293 2.71198,-0.002 v -4.23333 -4.23333 H 70.63892 66.141 v 4.40388 4.40389 l 1.78594,-0.16867 c 0.98227,-0.0928 3.00633,-0.16952 4.49792,-0.17055 z m 12.29078,-4.10328 0.0785,-4.36598 -4.43177,3.6e-4 -4.43177,3.5e-4 v 4.22586 4.22587 l 3.63802,0.0817 c 2.00091,0.0449 3.95989,0.10783 4.35328,0.13975 l 0.71527,0.058 z m 9.73578,3.5e-4 v -4.36562 h -4.35328 -4.35329 l -0.0785,4.36598 -0.0785,4.36597 4.43178,-3.5e-4 4.43177,-3.5e-4 z m 9.78958,0 v -4.36562 h -4.49791 -4.49792 v 4.36562 4.36563 h 4.49792 4.49791 z m 8.7974,4.19581 0.99219,-0.164 v -4.19872 -4.19871 h -4.35328 -4.35329 l -0.0785,4.36598 -0.0785,4.36597 3.43958,-0.003 c 1.89177,-0.002 3.88607,-0.0771 4.43177,-0.16726 z m 30.09635,-4.19581 v -4.36562 h -4.49791 -4.49792 v 4.22408 4.22407 l 2.71198,0.0857 c 1.49159,0.0472 3.51565,0.11086 4.49792,0.14155 l 1.78593,0.0558 z m 9.78959,0 v -4.36562 h -4.49792 -4.49792 v 4.36562 4.36563 h 4.49792 4.49792 z m -29.10417,-0.13229 v -4.23333 h -4.49792 -4.49791 v 4.23333 4.23333 h 4.49791 4.49792 z m 9.78958,0 v -4.23333 h -4.6302 -4.63021 v 4.23333 4.23333 h 4.63021 4.6302 z"
       id="path179" /></g></svg>
